<svg xmlns="http://www.w3.org/2000/svg" xmlns:xlink="http://www.w3.org/1999/xlink" width="500" zoomAndPan="magnify" viewBox="0 0 375 374.999991" height="500" preserveAspectRatio="xMidYMid meet" version="1.2"><g id="d2c79d1b78"><path style="fill:none;stroke-width:12;stroke-linecap:round;stroke-linejoin:miter;stroke:#3fd18f;stroke-opacity:1;stroke-miterlimit:4;" d="M 6.001921 5.998653 L 73.876925 5.998653 " transform="matrix(0,-0.75,0.75,0,313.606479,239.958471)"/><path style="fill:none;stroke-width:12;stroke-linecap:round;stroke-linejoin:miter;stroke:#3fd18f;stroke-opacity:1;stroke-miterlimit:4;" d="M 6.001192 5.999866 L 390.881426 5.999866 " transform="matrix(0,-0.75,0.75,0,180.050882,374.996987)"/><path style="fill:none;stroke-width:12;stroke-linecap:round;stroke-linejoin:miter;stroke:#3fd18f;stroke-opacity:1;stroke-miterlimit:4;" d="M 6.002411 6.000474 L 201.253575 6.000474 " transform="matrix(0,-0.749095,0.749095,0,124.876167,290.03544)"/><path style="fill:none;stroke-width:12;stroke-linecap:round;stroke-linejoin:miter;stroke:#3fd18f;stroke-opacity:1;stroke-miterlimit:4;" d="M 6.001921 6.001312 L 73.876925 6.001312 " transform="matrix(0,-0.75,0.75,0,50.483392,239.958471)"/><path style="fill:none;stroke-width:12;stroke-linecap:round;stroke-linejoin:miter;stroke:#3fd18f;stroke-opacity:1;stroke-miterlimit:4;" d="M 6.002411 6.000744 L 201.253575 6.000744 " transform="matrix(0,-0.749095,0.749095,0,256.098621,290.03544)"/><path style="fill:none;stroke-width:12;stroke-linecap:butt;stroke-linejoin:miter;stroke:#3fd18f;stroke-opacity:1;stroke-miterlimit:4;" d="M 5.143378 151.754329 C 122.085055 -42.585796 239.026732 -42.585796 355.973619 151.754329 " transform="matrix(0.749773,0,0,0.749773,51.12801,20.781233)"/></g></svg>